# xmcd
#
# Track frame offsets: 
#        150
#        16973
#        32288
#        49617
#        64976
#
# Disc length: 1080 seconds
#
# Revision: 0
# Processed by: cddbd v1.5.2PL0 Copyright (c) Steve Scherf et al.
# Submitted via: ExactAudioCopy v0.99pb4
#
DISCID=34043605
DTITLE=Jackie - Someone Like You EP
DYEAR=2010
DGENRE=Country
TTITLE0=Someone Like You [Campbell]
TTITLE1=Put Some Man On That [Peterik, Grisham, Krueger]
TTITLE2=With My Eyes Closed [Allen, Stampley, Zuffinetti]
TTITLE3=Another Monday Afternoon [Masitti, Wynn]
TTITLE4=Insane [Masitti, Celmer]
EXTD=
EXTT0=
EXTT1=
EXTT2=
EXTT3=
EXTT4=
PLAYORDER=
